<svg viewBox="0 0 74 18" fill="white" xmlns="http://www.w3.org/2000/svg">
<path d="M8.89092 17.7144H13.0246L7.95938 10.2301C10.2416 9.74727 11.5225 8.29871 11.5225 6.06839C11.5225 3.32072 9.91561 1.10189 6.10796 1.10189H0.00640869V17.7144H3.49966V10.4026H4.51271L8.89092 17.7144ZM3.49966 3.96452H5.56068C7.42375 3.96452 8.18062 4.76928 8.18062 5.95342C8.18062 7.14906 7.42375 7.93082 5.56068 7.93082H3.49966V3.96452Z" />
<path d="M19.4033 17.9443C23.2459 17.9443 25.9706 15.6565 25.9706 11.7936C25.9706 7.95381 23.2575 5.66601 19.4033 5.66601C15.5723 5.66601 12.8476 7.95381 12.8476 11.7936C12.8476 15.6565 15.5956 17.9443 19.4033 17.9443ZM19.3684 15.3116C17.4936 15.3116 16.1778 13.909 16.1778 11.7936C16.1778 9.67829 17.4936 8.27572 19.3684 8.27572C21.3129 8.27572 22.6404 9.67829 22.6404 11.7936C22.6404 13.909 21.3129 15.3116 19.3684 15.3116Z" />
<path d="M33.2925 17.9328C36.2617 17.9328 38.5906 16.3693 39.1728 13.5756L36.0754 13.2422C35.7028 14.6448 34.6665 15.3116 33.2575 15.3116C31.4527 15.3116 30.23 13.8975 30.23 11.7936C30.23 9.67829 31.4527 8.27572 33.2575 8.27572C34.6665 8.27572 35.7028 8.93102 36.0754 10.3451L39.1728 10.0117C38.5906 7.21804 36.3199 5.66601 33.2925 5.66601C29.5314 5.66601 26.8765 8.11476 26.8765 11.7936C26.8765 15.461 29.5314 17.9328 33.2925 17.9328Z" />
<path d="M48.9166 17.7144H52.9921L47.8337 11.3798L52.5496 5.89594H48.7536L44.9925 10.4486H44.3637V0.0557098H40.9753V17.7144H44.3637V12.7479H45.0624L48.9166 17.7144Z" />
<path d="M64.9134 11.6327C64.9018 7.49395 62.375 5.64301 58.9865 5.64301C55.2953 5.64301 52.6987 7.91932 52.6987 11.8051C52.6987 15.691 55.2254 17.9443 59.0913 17.9443C61.7811 17.9443 63.9353 16.5762 64.7271 14.1849L61.653 13.7366C61.1989 14.7827 60.2674 15.3346 59.068 15.3346C57.4728 15.3346 56.1453 14.3919 56.0056 12.426H64.8785L64.9134 11.6327ZM59.0098 7.9883C60.3838 7.9883 61.4201 8.75857 61.5948 10.2646H56.0988C56.4248 8.68959 57.4844 7.9883 59.0098 7.9883Z" />
<path d="M70.0811 7.76987V5.89594H66.8673V17.7144H70.2441V11.9546C70.2441 9.44836 71.4551 8.71258 73.9935 8.71258V5.75798C72.2585 5.75798 70.6866 6.72369 70.0811 7.76987Z" />
</svg>
